# xmcd
#
# Track frame offsets: 
#        150
#        16339
#        31802
#        44967
#        60590
#        80231
#        97949
#        114163
#        118726
#        135076
#        152437
#        170260
#        192018
#
# Disc length: 2788 seconds
#
# Revision: 3
# Processed by: cddbd v1.5.2PL0 Copyright (c) Steve Scherf et al.
# Submitted via: ExactAudioCopy v0.95b4
#
DISCID=990ae20d
DTITLE=Kelly Rowland - Ms. Kelly
DYEAR=2007
DGENRE=R&B
TTITLE0=Like This (feat. Eve)
TTITLE1=Comeback
TTITLE2=Ghetto (feat. Snoop Dogg)
TTITLE3=Work
TTITLE4=Flashback
TTITLE5=Every Thought Is You
TTITLE6=The Show (feat. Tank)
TTITLE7=Interlude
TTITLE8=Still In Love With My Ex
TTITLE9=Love
TTITLE10=Better Without You
TTITLE11=This Is Love
TTITLE12=Gotsta Go (Part 1) (feat. Da Brat) (radio edit)
EXTD=
EXTT0=
EXTT1=
EXTT2=
EXTT3=
EXTT4=
EXTT5=
EXTT6=
EXTT7=
EXTT8=
EXTT9=
EXTT10=
EXTT11=
EXTT12=
PLAYORDER=
